<svg xmlns="http://www.w3.org/2000/svg" width="200" height="200" fill="#fff" viewBox="0 0 100 100"><path d="M8.647 54.296c2.151 10.248 7.35 18.779 15.034 24.671 6.93 5.313 15.715 8.24 24.737 8.24 11.777 0 22.934-4.878 30.613-13.382 5.891-6.525 12.513-18.218 10.604-36.862a35.0132 35.0132 0 00-.521-3.428c1.336-1.785 2.336-2.914 2.345-2.924 2.028-2.263 2.599-5.481 1.472-8.304-1.126-2.823-3.755-4.763-6.784-5.009-1.286-.104-2.58-.157-3.846-.157-.835 0-1.667.023-2.497.068-4.873-4.201-11.097-6.545-17.633-6.545-7.301 0-13.938 2.996-18.21 8.217-4.282 5.234-5.848 12.325-4.437 20.022-4.021-.966-7.789-2.487-9.366-3.229a7.9953 7.9953 0 00-3.429-.772 7.997 7.997 0 00-4.952 1.716c-2.388 1.881-3.503 4.953-2.879 7.928.037.173.074.346.112.518a8.0033 8.0033 0 00-2.531-.411 7.997 7.997 0 00-4.952 1.716c-2.389 1.88-3.504 4.951-2.88 7.927zm7.83-1.644s8.609 4.087 16.865 4.778c-3.059-3.891-5.395-8.713-6.615-14.528 0 0 10.266 4.872 19.127 4.872.749 0 1.488-.035 2.21-.11.356-2.593.212-5.803-.587-9.762-2.545-12.6 5.664-19.237 14.693-19.237 5.26 0 10.795 2.25 14.648 6.885 1.755-.267 3.583-.408 5.481-.408 1.046 0 2.112.043 3.2.131 0 0-2.482 2.771-5.079 6.727.608 1.75 1.04 3.674 1.256 5.778 2.8 27.346-15.294 41.43-33.258 41.43-14.139-.001-28.198-8.719-31.941-26.556z"/></svg>